<?xml version="1.0" encoding="UTF-8" standalone="no"?>
<!-- Created with Inkscape (http://www.inkscape.org/) -->

<svg
   width="100mm"
   height="100mm"
   viewBox="0 0 100 100"
   version="1.1"
   id="svg1"
   xml:space="preserve"
   inkscape:version="1.3 (0e150ed, 2023-07-21)"
   sodipodi:docname="pacmans box icon.svg"
   xmlns:inkscape="http://www.inkscape.org/namespaces/inkscape"
   xmlns:sodipodi="http://sodipodi.sourceforge.net/DTD/sodipodi-0.dtd"
   xmlns="http://www.w3.org/2000/svg"
   xmlns:svg="http://www.w3.org/2000/svg"><sodipodi:namedview
     id="namedview1"
     pagecolor="#ffffff"
     bordercolor="#000000"
     borderopacity="0.25"
     inkscape:showpageshadow="2"
     inkscape:pageopacity="0.0"
     inkscape:pagecheckerboard="0"
     inkscape:deskcolor="#d1d1d1"
     inkscape:document-units="mm"
     inkscape:zoom="1.1671801"
     inkscape:cx="123.37427"
     inkscape:cy="152.50431"
     inkscape:window-width="1920"
     inkscape:window-height="1027"
     inkscape:window-x="0"
     inkscape:window-y="25"
     inkscape:window-maximized="1"
     inkscape:current-layer="layer1" /><defs
     id="defs1" /><g
     inkscape:label="Layer 1"
     inkscape:groupmode="layer"
     id="layer1"><rect
       style="fill:#000000;fill-opacity:1;fill-rule:nonzero;stroke:none;stroke-width:2.64583;stroke-linecap:round;stroke-linejoin:round;stroke-dasharray:none;stroke-opacity:1;paint-order:markers stroke fill"
       id="rect4"
       width="100"
       height="100"
       x="-1.0862963e-14"
       y="0"
       ry="0"
       rx="0"
       sodipodi:insensitive="true" /><path
       id="rect3"
       style="fill:none;fill-opacity:1;fill-rule:nonzero;stroke:#0000ee;stroke-width:2.64583;stroke-linecap:round;stroke-linejoin:round;stroke-dasharray:none;stroke-opacity:1;paint-order:markers stroke fill"
       d="m 12.434076,6.322915 c -2.5460066,0 -4.7105899,1.5563932 -5.6021356,3.769363 -0.325449,0.740946 -0.5090254,1.558711 -0.5090254,2.422043 v 20.140751 c 0,3.336069 2.6941829,6.022013 6.040483,6.022013 h 4.345635 c 3.3463,0 6.040482,-2.685944 6.040482,-6.022013 v -9.956497 h 9.887087 c 3.346301,0 6.040483,-2.685234 6.040483,-6.021301 v -4.333059 c 0,-3.3360678 -2.694182,-6.0213 -6.040483,-6.0213 z"
       sodipodi:insensitive="true" /><path
       id="rect3-1"
       style="fill:none;fill-opacity:1;fill-rule:nonzero;stroke:#0000ee;stroke-width:2.64583;stroke-linecap:round;stroke-linejoin:round;stroke-dasharray:none;stroke-opacity:1;paint-order:markers stroke fill"
       d="m 87.565925,6.322915 c 2.54601,0 4.71059,1.556393 5.60214,3.769363 0.32545,0.740946 0.50902,1.558711 0.50902,2.422043 v 20.140751 c 0,3.336069 -2.69418,6.022013 -6.04048,6.022013 h -4.34563 c -3.3463,0 -6.04049,-2.685944 -6.04049,-6.022013 v -9.956497 h -9.88708 c -3.3463,0 -6.04049,-2.685234 -6.04049,-6.021301 v -4.333059 c 0,-3.336068 2.69419,-6.0213 6.04049,-6.0213 z"
       sodipodi:insensitive="true" /><path
       id="rect3-1-9"
       style="fill:none;fill-opacity:1;fill-rule:nonzero;stroke:#0000ee;stroke-width:2.64583;stroke-linecap:round;stroke-linejoin:round;stroke-dasharray:none;stroke-opacity:1;paint-order:markers stroke fill"
       d="m 87.565925,93.677085 c 2.54601,0 4.71059,-1.556393 5.60214,-3.769363 0.32545,-0.740946 0.50902,-1.558711 0.50902,-2.422043 V 67.344928 c 0,-3.336069 -2.69418,-6.022013 -6.04048,-6.022013 h -4.34563 c -3.3463,0 -6.04049,2.685944 -6.04049,6.022013 v 9.956497 h -9.88708 c -3.3463,0 -6.04049,2.685234 -6.04049,6.021301 v 4.333059 c 0,3.336068 2.69419,6.0213 6.04049,6.0213 z"
       sodipodi:insensitive="true" /><path
       id="rect3-3"
       style="fill:none;fill-opacity:1;fill-rule:nonzero;stroke:#0000ee;stroke-width:2.64583;stroke-linecap:round;stroke-linejoin:round;stroke-dasharray:none;stroke-opacity:1;paint-order:markers stroke fill"
       d="m 12.434076,93.677085 c -2.546007,0 -4.71059,-1.55639 -5.602136,-3.76936 -0.325449,-0.74094 -0.509025,-1.55871 -0.509025,-2.42204 v -20.14075 c 0,-3.33607 2.694183,-6.02202 6.040483,-6.02202 h 4.345635 c 3.3463,0 6.040482,2.68595 6.040482,6.02202 v 9.95649 h 9.887087 c 3.346301,0 6.040483,2.68524 6.040483,6.02131 v 4.33305 c 0,3.33607 -2.694182,6.0213 -6.040483,6.0213 z"
       sodipodi:insensitive="true" /><path
       id="path4"
       style="fill:#faf441;fill-opacity:1;fill-rule:nonzero;stroke:none;stroke-width:2.64583;stroke-linecap:round;stroke-linejoin:round;stroke-dasharray:none;stroke-opacity:1;paint-order:markers stroke fill"
       d="M 50.000049 25.000024 A 25 25 0 0 0 30.715955 34.149854 L 55.371814 50.000049 L 30.715955 65.850244 A 25 25 0 0 0 50.000049 75.000073 A 25 25 0 0 0 75.000073 50.000049 A 25 25 0 0 0 50.000049 25.000024 z " /></g></svg>
