<?xml version="1.0" encoding="UTF-8" standalone="no"?>
<!-- Created with Inkscape (http://www.inkscape.org/) -->

<svg
   width="100mm"
   height="100mm"
   viewBox="0 0 100 100"
   version="1.1"
   id="svg1"
   xml:space="preserve"
   inkscape:version="1.3 (0e150ed, 2023-07-21)"
   sodipodi:docname="icon.svg"
   xmlns:inkscape="http://www.inkscape.org/namespaces/inkscape"
   xmlns:sodipodi="http://sodipodi.sourceforge.net/DTD/sodipodi-0.dtd"
   xmlns="http://www.w3.org/2000/svg"
   xmlns:svg="http://www.w3.org/2000/svg"><sodipodi:namedview
     id="namedview1"
     pagecolor="#ffffff"
     bordercolor="#000000"
     borderopacity="0.25"
     inkscape:showpageshadow="2"
     inkscape:pageopacity="0.0"
     inkscape:pagecheckerboard="0"
     inkscape:deskcolor="#d1d1d1"
     inkscape:document-units="mm"
     inkscape:zoom="1.1671801"
     inkscape:cx="123.37428"
     inkscape:cy="152.50431"
     inkscape:window-width="1920"
     inkscape:window-height="1027"
     inkscape:window-x="0"
     inkscape:window-y="25"
     inkscape:window-maximized="1"
     inkscape:current-layer="layer1" /><defs
     id="defs1" /><g
     inkscape:label="Layer 1"
     inkscape:groupmode="layer"
     id="layer1"><rect
       style="fill:#000000;fill-opacity:1;fill-rule:nonzero;stroke:none;stroke-width:2.64583;stroke-linecap:round;stroke-linejoin:round;stroke-dasharray:none;stroke-opacity:1;paint-order:markers stroke fill"
       id="rect4"
       width="100"
       height="100"
       x="-1.0862963e-14"
       y="0"
       ry="0"
       rx="0"
       sodipodi:insensitive="true" /><path
       id="rect3"
       style="fill:none;fill-opacity:1;fill-rule:nonzero;stroke:#0000ee;stroke-width:2.64583;stroke-linecap:round;stroke-linejoin:round;stroke-dasharray:none;stroke-opacity:1;paint-order:markers stroke fill"
       d="m 21.034907,16.322915 c -1.96309,0 -3.632086,1.200052 -4.319509,2.906356 -0.250937,0.571304 -0.392483,1.20184 -0.392483,1.867508 v 15.529467 c 0,2.572266 2.077342,4.643255 4.657496,4.643255 h 3.350688 c 2.580156,0 4.657497,-2.070989 4.657497,-4.643255 v -7.676927 h 7.623408 c 2.580156,0 4.657497,-2.070442 4.657497,-4.642707 v -3.340991 c 0,-2.572266 -2.077341,-4.642706 -4.657497,-4.642706 z"
       sodipodi:insensitive="true" /><path
       id="rect3-1"
       style="fill:none;fill-opacity:1;fill-rule:nonzero;stroke:#0000ee;stroke-width:2.64583;stroke-linecap:round;stroke-linejoin:round;stroke-dasharray:none;stroke-opacity:1;paint-order:markers stroke fill"
       d="m 78.965093,16.322915 c 1.963093,0 3.632087,1.200052 4.319513,2.906356 0.250938,0.571304 0.392479,1.20184 0.392479,1.867508 v 15.529467 c 0,2.572266 -2.077339,4.643255 -4.657495,4.643255 h -3.350684 c -2.580155,0 -4.657502,-2.070989 -4.657502,-4.643255 v -7.676927 h -7.623403 c -2.580155,0 -4.657502,-2.070442 -4.657502,-4.642707 v -3.340991 c 0,-2.572266 2.077347,-4.642706 4.657502,-4.642706 z"
       sodipodi:insensitive="true" /><path
       id="rect3-1-9"
       style="fill:none;fill-opacity:1;fill-rule:nonzero;stroke:#0000ee;stroke-width:2.64583;stroke-linecap:round;stroke-linejoin:round;stroke-dasharray:none;stroke-opacity:1;paint-order:markers stroke fill"
       d="m 78.965093,83.677085 c 1.963093,0 3.632087,-1.200052 4.319513,-2.906356 0.250938,-0.571304 0.392479,-1.20184 0.392479,-1.867509 V 63.373754 c 0,-2.572266 -2.077339,-4.643255 -4.657495,-4.643255 h -3.350684 c -2.580155,0 -4.657502,2.070989 -4.657502,4.643255 v 7.676927 h -7.623403 c -2.580155,0 -4.657502,2.070442 -4.657502,4.642706 v 3.340992 c 0,2.572266 2.077347,4.642706 4.657502,4.642706 z"
       sodipodi:insensitive="true" /><path
       id="rect3-3"
       style="fill:none;fill-opacity:1;fill-rule:nonzero;stroke:#0000ee;stroke-width:2.64583;stroke-linecap:round;stroke-linejoin:round;stroke-dasharray:none;stroke-opacity:1;paint-order:markers stroke fill"
       d="m 21.034907,83.677085 c -1.96309,0 -3.632086,-1.20005 -4.31951,-2.906354 -0.250937,-0.571299 -0.392482,-1.201839 -0.392482,-1.867506 V 63.373759 c 0,-2.572266 2.077342,-4.64326 4.657496,-4.64326 h 3.350688 c 2.580156,0 4.657497,2.070994 4.657497,4.64326 v 7.676922 h 7.623408 c 2.580156,0 4.657497,2.070447 4.657497,4.642713 v 3.340985 c 0,2.572267 -2.077341,4.642706 -4.657497,4.642706 z"
       sodipodi:insensitive="true" /><path
       id="path4"
       style="fill:#faf441;fill-opacity:1;fill-rule:nonzero;stroke:none;stroke-width:2.64583;stroke-linecap:round;stroke-linejoin:round;stroke-dasharray:none;stroke-opacity:1;paint-order:markers stroke fill"
       d="M 48.563959,25 A 24.956416,24.999976 0 0 0 29.313487,34.149821 L 53.92636,49.999999 29.313487,65.85018 a 24.956416,24.999976 0 0 0 19.250472,9.149819 24.956416,24.999976 0 0 0 24.956442,-25 A 24.956416,24.999976 0 0 0 48.563959,25 Z"
       sodipodi:insensitive="true" /><circle
       style="display:none;fill:#faad41;stroke-width:2.64583;stroke-linecap:round;stroke-linejoin:round;paint-order:markers stroke fill"
       id="path1"
       cx="50"
       cy="50"
       r="22.5"
       sodipodi:insensitive="true" /></g></svg>
