<?xml version="1.0" encoding="UTF-8" standalone="no"?>
<!-- Created with Inkscape (http://www.inkscape.org/) -->

<svg
   width="100mm"
   height="100mm"
   viewBox="0 0 100 100"
   version="1.1"
   id="svg1"
   xml:space="preserve"
   inkscape:version="1.3 (0e150ed, 2023-07-21)"
   sodipodi:docname="icon.svg"
   xmlns:inkscape="http://www.inkscape.org/namespaces/inkscape"
   xmlns:sodipodi="http://sodipodi.sourceforge.net/DTD/sodipodi-0.dtd"
   xmlns="http://www.w3.org/2000/svg"
   xmlns:svg="http://www.w3.org/2000/svg"><sodipodi:namedview
     id="namedview1"
     pagecolor="#ffffff"
     bordercolor="#000000"
     borderopacity="0.25"
     inkscape:showpageshadow="2"
     inkscape:pageopacity="0.0"
     inkscape:pagecheckerboard="0"
     inkscape:deskcolor="#d1d1d1"
     inkscape:document-units="mm"
     inkscape:zoom="1.1671801"
     inkscape:cx="123.37428"
     inkscape:cy="152.50431"
     inkscape:window-width="1920"
     inkscape:window-height="1027"
     inkscape:window-x="0"
     inkscape:window-y="25"
     inkscape:window-maximized="1"
     inkscape:current-layer="layer1" /><defs
     id="defs1" /><g
     inkscape:label="Layer 1"
     inkscape:groupmode="layer"
     id="layer1"><rect
       style="fill:#000000;fill-opacity:1;fill-rule:nonzero;stroke:none;stroke-width:2.64583;stroke-linecap:round;stroke-linejoin:round;stroke-dasharray:none;stroke-opacity:1;paint-order:markers stroke fill"
       id="rect4"
       width="100"
       height="100"
       x="-1.0862963e-14"
       y="0"
       ry="0"
       rx="0"
       sodipodi:insensitive="true" /><path
       id="rect3"
       style="fill:none;fill-opacity:1;fill-rule:nonzero;stroke:#0000ee;stroke-width:2.64583;stroke-linecap:round;stroke-linejoin:round;stroke-dasharray:none;stroke-opacity:1;paint-order:markers stroke fill"
       d="m 14.584283,8.822915 c -2.400277,0 -4.440963,1.467308 -5.281478,3.553611 -0.306821,0.698536 -0.47989,1.469493 -0.47989,2.283409 v 18.98793 c 0,3.145118 2.539973,5.677324 5.694736,5.677324 h 4.096898 c 3.154764,0 5.694736,-2.532206 5.694736,-5.677324 v -9.386604 h 9.321167 c 3.154765,0 5.694737,-2.531536 5.694737,-5.676653 v -4.085041 c 0,-3.145118 -2.539972,-5.676652 -5.694737,-5.676652 z" /><path
       id="rect3-1"
       style="fill:none;fill-opacity:1;fill-rule:nonzero;stroke:#0000ee;stroke-width:2.64583;stroke-linecap:round;stroke-linejoin:round;stroke-dasharray:none;stroke-opacity:1;paint-order:markers stroke fill"
       d="m 85.415716,8.822915 c 2.40028,0 4.440964,1.467308 5.281483,3.553611 0.306822,0.698536 0.479885,1.469493 0.479885,2.283409 v 18.98793 c 0,3.145118 -2.53997,5.677324 -5.694734,5.677324 h -4.096894 c -3.154763,0 -5.694742,-2.532206 -5.694742,-5.677324 v -9.386604 h -9.321161 c -3.154764,0 -5.694743,-2.531536 -5.694743,-5.676653 v -4.085041 c 0,-3.145118 2.539979,-5.676652 5.694743,-5.676652 z" /><path
       id="rect3-1-9"
       style="fill:none;fill-opacity:1;fill-rule:nonzero;stroke:#0000ee;stroke-width:2.64583;stroke-linecap:round;stroke-linejoin:round;stroke-dasharray:none;stroke-opacity:1;paint-order:markers stroke fill"
       d="m 85.415716,91.177084 c 2.40028,0 4.440964,-1.467308 5.281483,-3.553611 0.306822,-0.698536 0.479885,-1.469493 0.479885,-2.28341 V 66.352134 c 0,-3.145119 -2.53997,-5.677324 -5.694734,-5.677324 h -4.096894 c -3.154763,0 -5.694742,2.532205 -5.694742,5.677324 v 9.386604 h -9.321161 c -3.154764,0 -5.694743,2.531536 -5.694743,5.676652 v 4.085042 c 0,3.145118 2.539979,5.676652 5.694743,5.676652 z" /><path
       id="rect3-3"
       style="fill:none;fill-opacity:1;fill-rule:nonzero;stroke:#0000ee;stroke-width:2.64583;stroke-linecap:round;stroke-linejoin:round;stroke-dasharray:none;stroke-opacity:1;paint-order:markers stroke fill"
       d="m 14.584283,91.177084 c -2.400277,0 -4.440963,-1.467305 -5.281479,-3.553609 C 8.995983,86.924946 8.822915,86.153983 8.822915,85.340069 V 66.35214 c 0,-3.145118 2.539973,-5.67733 5.694736,-5.67733 h 4.096898 c 3.154764,0 5.694736,2.532212 5.694736,5.67733 v 9.386598 h 9.321167 c 3.154765,0 5.694737,2.531542 5.694737,5.67666 v 4.085034 c 0,3.14512 -2.539972,5.676652 -5.694737,5.676652 z" /><path
       id="path4"
       style="fill:#faf441;fill-opacity:1;fill-rule:nonzero;stroke:none;stroke-width:2.64583;stroke-linecap:round;stroke-linejoin:round;stroke-dasharray:none;stroke-opacity:1;paint-order:markers stroke fill"
       d="m 50.000045,26.430978 a 23.569044,23.569044 0 0 0 -18.180305,8.62611 l 23.2446,14.942957 -23.2446,14.942958 A 23.569044,23.569044 0 0 0 50.000045,73.569111 23.569044,23.569044 0 0 0 73.569111,50.000045 23.569044,23.569044 0 0 0 50.000045,26.430978 Z" /></g></svg>
